<svg width="800" height="180" viewBox="0 0 800 180" xmlns="http://www.w3.org/2000/svg">
  <g transform="translate(20,20) scale(3.2)">
    <!-- Tortoise Icon -->
    <ellipse cx="20" cy="20" rx="10" ry="14" fill="#1a1a1a" stroke="#ffffff" stroke-width="1.5"/>
    <ellipse cx="20" cy="20" rx="7" ry="10" fill="#2d2d2d"/>

    <circle cx="20" cy="14" r="2" fill="#ffffff"/>
    <circle cx="17" cy="18" r="2" fill="#ffffff"/>
    <circle cx="23" cy="18" r="2" fill="#ffffff"/>
    <circle cx="20" cy="21" r="2" fill="#ffffff"/>
    <circle cx="17" cy="24" r="1.8" fill="#ffffff"/>
    <circle cx="23" cy="24" r="1.8" fill="#ffffff"/>

    <ellipse cx="20" cy="6" rx="3" ry="4" fill="#1a1a1a" stroke="#ffffff" stroke-width="1"/>
    <circle cx="18.5" cy="5.5" r="0.7" fill="#fff"/>
    <circle cx="21.5" cy="5.5" r="0.7" fill="#fff"/>

    <ellipse cx="12" cy="11" rx="2.5" ry="3" fill="#1a1a1a" stroke="#ffffff" stroke-width="1" transform="rotate(-45 12 11)"/>
    <ellipse cx="28" cy="11" rx="2.5" ry="3" fill="#1a1a1a" stroke="#ffffff" stroke-width="1" transform="rotate(45 28 11)"/>
    <ellipse cx="12" cy="29" rx="2.5" ry="3" fill="#1a1a1a" stroke="#ffffff" stroke-width="1" transform="rotate(-135 12 29)"/>
    <ellipse cx="28" cy="29" rx="2.5" ry="3" fill="#1a1a1a" stroke="#ffffff" stroke-width="1" transform="rotate(135 28 29)"/>

    <ellipse cx="20" cy="34" rx="2" ry="3" fill="#1a1a1a" stroke="#ffffff" stroke-width="1"/>
  </g>

  <!-- Brand Name -->
  <text x="180" y="105"
        font-family="Inter, Montserrat, Arial, sans-serif"
        font-size="54"
        font-weight="700"
        fill="#111111"
        letter-spacing="1">
    AUTOTECHIFY.COM
  </text>
</svg>